<svg xmlns="http://www.w3.org/2000/svg" viewBox="0 0 64 64" aria-hidden="true">
  <circle cx="32" cy="32" r="32" fill="#171512"/>
  <path fill="#f8f5ef" d="M32 13.4c-10.8 0-19.6 8.8-19.6 19.6 0 8.7 5.6 16 13.4 18.6 1 .2 1.3-.4 1.3-.9v-3.5c-5.4 1.2-6.6-2.3-6.6-2.3-.9-2.2-2.2-2.8-2.2-2.8-1.8-1.2.1-1.2.1-1.2 2 .1 3.1 2.1 3.1 2.1 1.8 3 4.7 2.1 5.8 1.6.2-1.3.7-2.1 1.3-2.6-4.3-.5-8.9-2.2-8.9-9.7 0-2.1.8-3.9 2.1-5.3-.2-.5-.9-2.5.2-5.2 0 0 1.7-.5 5.4 2.1 1.6-.4 3.2-.7 4.9-.7s3.3.2 4.9.7c3.7-2.5 5.4-2.1 5.4-2.1 1.1 2.7.4 4.7.2 5.2 1.3 1.4 2.1 3.2 2.1 5.3 0 7.5-4.6 9.1-8.9 9.6.7.6 1.4 1.8 1.4 3.7v5.4c0 .5.4 1.1 1.4.9 7.8-2.6 13.4-9.9 13.4-18.6 0-10.8-8.8-19.6-19.6-19.6z"/>
</svg>
